<?xml version="1.0" standalone="no"?>
<!DOCTYPE svg PUBLIC "-//W3C//DTD SVG 20010904//EN"
 "http://www.w3.org/TR/2001/REC-SVG-20010904/DTD/svg10.dtd">
<svg version="1.0" xmlns="http://www.w3.org/2000/svg"
 width="512.000000pt" height="512.000000pt" viewBox="0 0 512.000000 512.000000"
 preserveAspectRatio="xMidYMid meet">
<metadata>
Created by potrace 1.16, written by Peter Selinger 2001-2019
</metadata>
<g transform="translate(0.000000,512.000000) scale(0.100000,-0.100000)"
fill="#000000" stroke="none">
<path d="M1259 4476 c-121 -43 -347 -236 -480 -411 -71 -92 -130 -188 -198
-322 -71 -140 -106 -176 -209 -219 -144 -59 -170 -73 -230 -128 -45 -42 -72
-79 -99 -134 -38 -75 -38 -77 -38 -197 0 -116 1 -123 33 -187 22 -45 51 -83
90 -118 43 -40 439 -273 1632 -962 866 -500 1629 -936 1695 -968 444 -216 888
-257 1246 -115 196 78 332 184 387 302 38 83 43 223 12 306 -29 77 -65 117
-174 190 -198 132 -348 258 -606 512 -98 96 -190 178 -209 186 -26 11 -52 41
-112 132 -76 114 -78 119 -63 142 27 42 -10 94 -57 82 -14 -4 -27 9 -55 55
-33 55 -35 60 -20 77 9 10 16 25 16 34 0 27 -38 59 -66 55 -22 -3 -31 6 -59
53 -28 49 -31 58 -19 74 8 10 14 29 14 42 0 27 -41 57 -67 49 -14 -4 -25 8
-51 55 -31 56 -32 62 -18 78 34 38 2 98 -47 89 -21 -4 -28 3 -55 58 -17 35
-28 66 -23 68 16 10 18 55 4 76 -8 12 -25 20 -41 20 -25 0 -33 11 -91 128 -79
159 -106 193 -183 231 -50 25 -74 31 -128 31 -161 0 -252 -81 -382 -340 -27
-52 -52 -100 -57 -106 -17 -21 -172 -37 -292 -31 -190 9 -326 64 -439 177
-138 137 -210 348 -210 611 0 141 -17 197 -79 259 -73 73 -180 99 -272 66z
m161 -111 c61 -31 74 -65 81 -217 11 -203 36 -335 85 -452 26 -65 -210 162
-275 263 -27 42 -60 104 -74 137 -32 76 -61 189 -54 208 3 8 30 29 59 45 60
35 129 41 178 16z m1621 -637 c66 -22 88 -49 160 -191 56 -110 68 -141 57
-148 -7 -5 -55 -30 -106 -57 l-94 -47 -16 25 c-9 14 -39 48 -68 76 -41 42 -61
54 -103 63 -52 11 -120 3 -162 -20 -24 -12 -24 -8 2 44 39 77 129 206 160 228
54 38 112 47 170 27z m-2338 -470 c242 -172 851 -618 938 -687 l46 -37 -396
-43 c-218 -23 -403 -43 -412 -44 -24 -3 -636 353 -681 396 -94 91 -118 237
-60 359 47 99 108 153 224 199 40 15 79 28 86 29 8 0 123 -77 255 -172z m2654
-22 l32 -65 -83 -45 c-46 -25 -88 -46 -93 -46 -9 1 -97 119 -92 124 10 9 185
95 194 95 6 1 25 -28 42 -63z m-1121 14 c28 0 35 -8 102 -122 177 -304 261
-552 262 -769 0 -109 -15 -181 -51 -249 -44 -84 -24 -91 -261 97 -117 93 -239
188 -270 212 -32 24 -58 46 -58 50 0 4 21 17 46 29 25 12 68 44 96 70 145 135
163 353 54 631 l-26 64 38 -7 c20 -3 51 -6 68 -6z m1240 -236 c20 -36 35 -67
33 -68 -9 -9 -151 -77 -153 -74 -41 53 -87 120 -84 123 3 2 160 83 165 85 1 0
19 -29 39 -66z m127 -226 l36 -63 -66 -33 c-36 -18 -66 -32 -67 -30 -2 2 -22
30 -45 63 l-42 59 63 33 c35 17 68 32 75 33 6 0 27 -28 46 -62z m121 -209 c20
-33 36 -65 36 -70 0 -8 -100 -63 -104 -57 -2 2 -21 30 -45 62 l-42 60 58 33
c32 18 59 33 59 33 1 0 18 -27 38 -61z m-1766 -246 c180 -141 454 -360 622
-498 475 -390 875 -623 1342 -779 291 -97 649 -154 874 -139 l69 4 -54 -35
c-67 -44 -178 -91 -279 -118 -97 -26 -343 -36 -464 -19 -194 28 -447 112 -633
211 -76 40 -2043 1172 -2325 1339 l-95 56 365 41 c201 23 382 42 403 43 33 1
53 -11 175 -106z m1917 2 c30 -47 55 -88 55 -90 0 -8 -33 -5 -73 6 -38 10
-110 66 -128 100 -8 16 -2 22 38 43 27 14 49 25 50 26 2 0 28 -38 58 -85z
m1085 -986 c52 -58 69 -182 35 -266 -19 -47 -22 -48 -180 -58 -200 -13 -514
28 -765 101 -130 37 -410 143 -410 155 0 3 28 14 62 24 127 35 327 30 613 -16
66 -11 153 -24 193 -29 131 -17 280 18 365 85 23 18 46 34 50 34 4 1 21 -13
37 -30z"/>
</g>
</svg>
